<?xml version="1.0" encoding="utf-8" standalone="no"?>
<!DOCTYPE svg PUBLIC "-//W3C//DTD SVG 1.1//EN"
  "http://www.w3.org/Graphics/SVG/1.1/DTD/svg11.dtd">
<svg xmlns:xlink="http://www.w3.org/1999/xlink" width="701.801932pt" height="255.619095pt" viewBox="0 0 701.801932 255.619095" xmlns="http://www.w3.org/2000/svg" version="1.1">
 <metadata>
  <rdf:RDF xmlns:dc="http://purl.org/dc/elements/1.1/" xmlns:cc="http://creativecommons.org/ns#" xmlns:rdf="http://www.w3.org/1999/02/22-rdf-syntax-ns#">
   <cc:Work>
    <dc:type rdf:resource="http://purl.org/dc/dcmitype/StillImage"/>
    <dc:date>2026-03-28T14:37:27.200040</dc:date>
    <dc:format>image/svg+xml</dc:format>
    <dc:creator>
     <cc:Agent>
      <dc:title>Matplotlib v3.10.8, https://matplotlib.org/</dc:title>
     </cc:Agent>
    </dc:creator>
   </cc:Work>
  </rdf:RDF>
 </metadata>
 <defs>
  <style type="text/css">*{stroke-linejoin: round; stroke-linecap: butt}</style>
 </defs>
 <g id="figure_1">
  <g id="patch_1">
   <path d="M 0 255.619095 
L 701.801932 255.619095 
L 701.801932 0 
L 0 0 
z
" style="fill: #f8f0f0"/>
  </g>
  <g id="axes_1">
   <g id="patch_2">
    <path d="M 26.5425 206.1456 
L 691.653214 206.1456 
L 691.653214 7.2 
L 26.5425 7.2 
z
" style="fill: #f8f0f0"/>
   </g>
   <g id="matplotlib.axis_1">
    <g id="xtick_1">
     <g id="line2d_1"/>
     <g id="text_1">
      <!-- Mar 21 -->
      <g style="fill: #2d2020" transform="translate(23.593782 224.71435) scale(0.12 -0.12)">
       <defs>
        <path id="HelveticaNeue-4d" d="M 512 4570 
L 512 0 
L 1088 0 
L 1088 3802 
L 1101 3802 
L 2528 0 
L 3046 0 
L 4474 3802 
L 4486 3802 
L 4486 0 
L 5062 0 
L 5062 4570 
L 4230 4570 
L 2784 730 
L 1344 4570 
L 512 4570 
z
" transform="scale(0.015625)"/>
        <path id="HelveticaNeue-61" d="M 3341 13 
Q 3200 -70 2950 -70 
Q 2739 -70 2614 48 
Q 2490 166 2490 435 
Q 2266 166 1968 48 
Q 1670 -70 1325 -70 
Q 1101 -70 899 -19 
Q 698 32 550 141 
Q 403 250 316 426 
Q 230 602 230 851 
Q 230 1133 326 1312 
Q 422 1491 579 1603 
Q 736 1715 937 1772 
Q 1139 1830 1350 1869 
Q 1574 1914 1776 1936 
Q 1978 1958 2131 2000 
Q 2285 2042 2374 2122 
Q 2464 2202 2464 2355 
Q 2464 2534 2397 2643 
Q 2330 2752 2224 2809 
Q 2118 2867 1987 2886 
Q 1856 2906 1728 2906 
Q 1382 2906 1152 2774 
Q 922 2643 902 2278 
L 358 2278 
Q 371 2586 486 2797 
Q 602 3008 794 3139 
Q 986 3270 1232 3328 
Q 1478 3386 1760 3386 
Q 1984 3386 2205 3354 
Q 2426 3322 2605 3222 
Q 2784 3123 2893 2944 
Q 3002 2765 3002 2477 
L 3002 774 
Q 3002 582 3024 492 
Q 3046 403 3174 403 
Q 3245 403 3341 435 
L 3341 13 
z
M 2458 1709 
Q 2355 1632 2188 1597 
Q 2022 1562 1840 1539 
Q 1658 1517 1472 1488 
Q 1286 1459 1139 1395 
Q 992 1331 899 1212 
Q 806 1094 806 890 
Q 806 755 860 662 
Q 915 570 1001 512 
Q 1088 454 1203 428 
Q 1318 403 1446 403 
Q 1715 403 1907 476 
Q 2099 550 2220 662 
Q 2342 774 2400 905 
Q 2458 1037 2458 1152 
L 2458 1709 
z
" transform="scale(0.015625)"/>
        <path id="HelveticaNeue-72" d="M 390 3309 
L 390 0 
L 934 0 
L 934 1472 
Q 934 1792 998 2038 
Q 1062 2285 1203 2457 
Q 1344 2630 1574 2720 
Q 1805 2810 2131 2810 
L 2131 3386 
Q 1690 3398 1402 3206 
Q 1114 3014 915 2611 
L 902 2611 
L 902 3309 
L 390 3309 
z
" transform="scale(0.015625)"/>
        <path id="HelveticaNeue-20" transform="scale(0.015625)"/>
        <path id="HelveticaNeue-32" d="M 282 2931 
L 826 2931 
Q 819 3136 867 3337 
Q 915 3539 1024 3699 
Q 1133 3859 1302 3958 
Q 1472 4058 1709 4058 
Q 1888 4058 2048 4000 
Q 2208 3942 2326 3833 
Q 2445 3725 2515 3574 
Q 2586 3424 2586 3238 
Q 2586 3002 2512 2822 
Q 2438 2643 2294 2489 
Q 2150 2336 1932 2185 
Q 1715 2035 1427 1856 
Q 1190 1715 972 1555 
Q 755 1395 582 1184 
Q 410 973 298 688 
Q 186 403 154 0 
L 3117 0 
L 3117 480 
L 787 480 
Q 826 691 950 854 
Q 1075 1018 1251 1158 
Q 1427 1299 1638 1424 
Q 1850 1549 2061 1677 
Q 2272 1811 2470 1958 
Q 2669 2106 2822 2288 
Q 2976 2470 3069 2700 
Q 3162 2931 3162 3232 
Q 3162 3552 3050 3795 
Q 2938 4038 2746 4201 
Q 2554 4365 2294 4451 
Q 2035 4538 1741 4538 
Q 1382 4538 1100 4416 
Q 819 4294 630 4080 
Q 442 3866 352 3571 
Q 262 3277 282 2931 
z
" transform="scale(0.015625)"/>
        <path id="HelveticaNeue-31" d="M 2278 0 
L 2278 4538 
L 1862 4538 
Q 1818 4282 1696 4115 
Q 1574 3949 1398 3853 
Q 1222 3757 1004 3721 
Q 787 3686 557 3686 
L 557 3251 
L 1734 3251 
L 1734 0 
L 2278 0 
z
" transform="scale(0.015625)"/>
       </defs>
       <use xlink:href="#HelveticaNeue-4d"/>
       <use xlink:href="#HelveticaNeue-61" transform="translate(87.099991 0)"/>
       <use xlink:href="#HelveticaNeue-72" transform="translate(140.799988 0)"/>
       <use xlink:href="#HelveticaNeue-20" transform="translate(174.099976 0)"/>
       <use xlink:href="#HelveticaNeue-32" transform="translate(201.899963 0)"/>
       <use xlink:href="#HelveticaNeue-31" transform="translate(257.499954 0)"/>
      </g>
     </g>
    </g>
    <g id="xtick_2">
     <g id="line2d_2"/>
     <g id="text_2">
      <!-- Mar 22 -->
      <g style="fill: #2d2020" transform="translate(102.773629 224.71435) scale(0.12 -0.12)">
       <use xlink:href="#HelveticaNeue-4d"/>
       <use xlink:href="#HelveticaNeue-61" transform="translate(87.099991 0)"/>
       <use xlink:href="#HelveticaNeue-72" transform="translate(140.799988 0)"/>
       <use xlink:href="#HelveticaNeue-20" transform="translate(174.099976 0)"/>
       <use xlink:href="#HelveticaNeue-32" transform="translate(201.899963 0)"/>
       <use xlink:href="#HelveticaNeue-32" transform="translate(257.499954 0)"/>
      </g>
     </g>
    </g>
    <g id="xtick_3">
     <g id="line2d_3"/>
     <g id="text_3">
      <!-- Mar 23 -->
      <g style="fill: #2d2020" transform="translate(181.953476 224.71435) scale(0.12 -0.12)">
       <defs>
        <path id="HelveticaNeue-33" d="M 1395 2592 
L 1395 2131 
Q 1549 2150 1722 2150 
Q 1926 2150 2102 2096 
Q 2278 2042 2406 1930 
Q 2534 1818 2611 1654 
Q 2688 1491 2688 1280 
Q 2688 1075 2608 912 
Q 2528 749 2393 637 
Q 2259 525 2080 464 
Q 1901 403 1702 403 
Q 1235 403 992 681 
Q 749 960 736 1402 
L 192 1402 
Q 186 1050 291 774 
Q 397 499 595 310 
Q 794 122 1075 26 
Q 1357 -70 1702 -70 
Q 2022 -70 2307 16 
Q 2592 102 2803 275 
Q 3014 448 3139 707 
Q 3264 966 3264 1306 
Q 3264 1715 3062 2016 
Q 2861 2317 2445 2406 
L 2445 2419 
Q 2714 2541 2893 2777 
Q 3072 3014 3072 3322 
Q 3072 3635 2966 3865 
Q 2861 4096 2675 4243 
Q 2490 4390 2237 4464 
Q 1984 4538 1690 4538 
Q 1350 4538 1091 4429 
Q 832 4320 659 4128 
Q 486 3936 393 3667 
Q 301 3398 288 3072 
L 832 3072 
Q 832 3270 883 3449 
Q 934 3629 1040 3763 
Q 1146 3898 1309 3978 
Q 1472 4058 1690 4058 
Q 2035 4058 2265 3875 
Q 2496 3693 2496 3328 
Q 2496 3149 2425 3008 
Q 2355 2867 2236 2774 
Q 2118 2682 1961 2634 
Q 1805 2586 1632 2586 
L 1517 2586 
Q 1485 2586 1453 2586 
Q 1427 2586 1395 2592 
z
" transform="scale(0.015625)"/>
       </defs>
       <use xlink:href="#HelveticaNeue-4d"/>
       <use xlink:href="#HelveticaNeue-61" transform="translate(87.099991 0)"/>
       <use xlink:href="#HelveticaNeue-72" transform="translate(140.799988 0)"/>
       <use xlink:href="#HelveticaNeue-20" transform="translate(174.099976 0)"/>
       <use xlink:href="#HelveticaNeue-32" transform="translate(201.899963 0)"/>
       <use xlink:href="#HelveticaNeue-33" transform="translate(257.499954 0)"/>
      </g>
     </g>
    </g>
    <g id="xtick_4">
     <g id="line2d_4"/>
     <g id="text_4">
      <!-- Mar 24 -->
      <g style="fill: #2d2020" transform="translate(261.133323 224.71435) scale(0.12 -0.12)">
       <defs>
        <path id="HelveticaNeue-34" d="M 2170 1542 
L 646 1542 
L 2157 3763 
L 2170 3763 
L 2170 1542 
z
M 2682 1542 
L 2682 4538 
L 2246 4538 
L 179 1587 
L 179 1062 
L 2170 1062 
L 2170 0 
L 2682 0 
L 2682 1062 
L 3296 1062 
L 3296 1542 
L 2682 1542 
z
" transform="scale(0.015625)"/>
       </defs>
       <use xlink:href="#HelveticaNeue-4d"/>
       <use xlink:href="#HelveticaNeue-61" transform="translate(87.099991 0)"/>
       <use xlink:href="#HelveticaNeue-72" transform="translate(140.799988 0)"/>
       <use xlink:href="#HelveticaNeue-20" transform="translate(174.099976 0)"/>
       <use xlink:href="#HelveticaNeue-32" transform="translate(201.899963 0)"/>
       <use xlink:href="#HelveticaNeue-34" transform="translate(257.499954 0)"/>
      </g>
     </g>
    </g>
    <g id="xtick_5">
     <g id="line2d_5"/>
     <g id="text_5">
      <!-- Mar 25 -->
      <g style="fill: #2d2020" transform="translate(340.31317 224.71435) scale(0.12 -0.12)">
       <defs>
        <path id="HelveticaNeue-35" d="M 3008 3981 
L 3008 4461 
L 768 4461 
L 346 2106 
L 813 2080 
Q 973 2272 1181 2390 
Q 1389 2509 1658 2509 
Q 1888 2509 2077 2432 
Q 2266 2355 2400 2217 
Q 2534 2080 2608 1891 
Q 2682 1702 2682 1478 
Q 2682 1210 2605 1008 
Q 2528 806 2397 672 
Q 2266 538 2090 470 
Q 1914 403 1722 403 
Q 1517 403 1347 464 
Q 1178 525 1053 637 
Q 928 749 854 899 
Q 781 1050 768 1222 
L 224 1222 
Q 230 915 345 672 
Q 461 429 659 265 
Q 858 102 1117 16 
Q 1376 -70 1670 -70 
Q 2067 -70 2364 54 
Q 2662 179 2860 390 
Q 3059 602 3158 874 
Q 3258 1146 3258 1434 
Q 3258 1824 3142 2115 
Q 3027 2406 2828 2601 
Q 2630 2797 2361 2893 
Q 2093 2989 1792 2989 
Q 1562 2989 1328 2909 
Q 1094 2829 947 2662 
L 934 2675 
L 1178 3981 
L 3008 3981 
z
" transform="scale(0.015625)"/>
       </defs>
       <use xlink:href="#HelveticaNeue-4d"/>
       <use xlink:href="#HelveticaNeue-61" transform="translate(87.099991 0)"/>
       <use xlink:href="#HelveticaNeue-72" transform="translate(140.799988 0)"/>
       <use xlink:href="#HelveticaNeue-20" transform="translate(174.099976 0)"/>
       <use xlink:href="#HelveticaNeue-32" transform="translate(201.899963 0)"/>
       <use xlink:href="#HelveticaNeue-35" transform="translate(257.499954 0)"/>
      </g>
     </g>
    </g>
    <g id="xtick_6">
     <g id="line2d_6"/>
     <g id="text_6">
      <!-- Mar 26 -->
      <g style="fill: #2d2020" transform="translate(419.493017 224.71435) scale(0.12 -0.12)">
       <defs>
        <path id="HelveticaNeue-36" d="M 2650 3379 
L 3194 3379 
Q 3142 3942 2809 4240 
Q 2477 4538 1914 4538 
Q 1427 4538 1107 4333 
Q 787 4128 595 3789 
Q 403 3450 323 3011 
Q 243 2573 243 2106 
Q 243 1747 297 1363 
Q 352 979 518 659 
Q 685 339 992 134 
Q 1299 -70 1805 -70 
Q 2234 -70 2525 74 
Q 2816 218 2992 438 
Q 3168 659 3245 928 
Q 3322 1197 3322 1446 
Q 3322 1760 3226 2029 
Q 3130 2298 2954 2496 
Q 2778 2694 2518 2806 
Q 2259 2918 1933 2918 
Q 1562 2918 1277 2777 
Q 992 2637 800 2323 
L 787 2336 
Q 794 2598 838 2899 
Q 883 3200 1001 3459 
Q 1120 3718 1331 3888 
Q 1542 4058 1888 4058 
Q 2214 4058 2412 3872 
Q 2611 3686 2650 3379 
z
M 1830 2438 
Q 2061 2438 2233 2355 
Q 2406 2272 2521 2134 
Q 2637 1997 2691 1808 
Q 2746 1619 2746 1408 
Q 2746 1210 2685 1027 
Q 2624 845 2509 704 
Q 2394 563 2224 483 
Q 2054 403 1830 403 
Q 1606 403 1430 483 
Q 1254 563 1136 697 
Q 1018 832 954 1017 
Q 890 1203 890 1414 
Q 890 1626 950 1814 
Q 1011 2003 1132 2140 
Q 1254 2278 1427 2358 
Q 1600 2438 1830 2438 
z
" transform="scale(0.015625)"/>
       </defs>
       <use xlink:href="#HelveticaNeue-4d"/>
       <use xlink:href="#HelveticaNeue-61" transform="translate(87.099991 0)"/>
       <use xlink:href="#HelveticaNeue-72" transform="translate(140.799988 0)"/>
       <use xlink:href="#HelveticaNeue-20" transform="translate(174.099976 0)"/>
       <use xlink:href="#HelveticaNeue-32" transform="translate(201.899963 0)"/>
       <use xlink:href="#HelveticaNeue-36" transform="translate(257.499954 0)"/>
      </g>
     </g>
    </g>
    <g id="xtick_7">
     <g id="line2d_7"/>
     <g id="text_7">
      <!-- Mar 27 -->
      <g style="fill: #2d2020" transform="translate(498.672864 224.71435) scale(0.12 -0.12)">
       <defs>
        <path id="HelveticaNeue-37" d="M 3258 3994 
L 3258 4461 
L 320 4461 
L 320 3949 
L 2701 3949 
Q 2342 3571 2032 3123 
Q 1722 2675 1485 2172 
Q 1248 1670 1097 1123 
Q 947 576 909 0 
L 1517 0 
Q 1549 531 1696 1094 
Q 1843 1658 2076 2189 
Q 2310 2720 2611 3187 
Q 2912 3654 3258 3994 
z
" transform="scale(0.015625)"/>
       </defs>
       <use xlink:href="#HelveticaNeue-4d"/>
       <use xlink:href="#HelveticaNeue-61" transform="translate(87.099991 0)"/>
       <use xlink:href="#HelveticaNeue-72" transform="translate(140.799988 0)"/>
       <use xlink:href="#HelveticaNeue-20" transform="translate(174.099976 0)"/>
       <use xlink:href="#HelveticaNeue-32" transform="translate(201.899963 0)"/>
       <use xlink:href="#HelveticaNeue-37" transform="translate(257.499954 0)"/>
      </g>
     </g>
    </g>
    <g id="xtick_8">
     <g id="line2d_8"/>
     <g id="text_8">
      <!-- Mar 28 -->
      <g style="fill: #2d2020" transform="translate(577.85271 224.71435) scale(0.12 -0.12)">
       <defs>
        <path id="HelveticaNeue-38" d="M 992 3360 
Q 992 3533 1056 3661 
Q 1120 3789 1225 3878 
Q 1331 3968 1478 4013 
Q 1626 4058 1786 4058 
Q 2118 4058 2332 3882 
Q 2547 3706 2547 3360 
Q 2547 3014 2336 2822 
Q 2125 2630 1798 2630 
Q 1632 2630 1485 2675 
Q 1338 2720 1229 2809 
Q 1120 2899 1056 3036 
Q 992 3174 992 3360 
z
M 416 3379 
Q 416 3072 589 2813 
Q 762 2554 1050 2438 
Q 666 2304 461 2006 
Q 256 1709 256 1306 
Q 256 960 374 701 
Q 493 442 701 269 
Q 909 96 1190 13 
Q 1472 -70 1798 -70 
Q 2112 -70 2387 19 
Q 2662 109 2864 285 
Q 3066 461 3184 717 
Q 3302 973 3302 1306 
Q 3302 1728 3104 2019 
Q 2906 2310 2496 2438 
Q 2784 2566 2953 2819 
Q 3123 3072 3123 3379 
Q 3123 3597 3046 3805 
Q 2970 4013 2806 4176 
Q 2643 4339 2380 4438 
Q 2118 4538 1747 4538 
Q 1485 4538 1245 4461 
Q 1005 4384 819 4237 
Q 634 4090 525 3875 
Q 416 3661 416 3379 
z
M 832 1280 
Q 832 1478 905 1638 
Q 979 1798 1110 1913 
Q 1242 2029 1418 2089 
Q 1594 2150 1792 2150 
Q 1984 2150 2153 2083 
Q 2323 2016 2451 1901 
Q 2579 1786 2652 1629 
Q 2726 1472 2726 1286 
Q 2726 1094 2659 934 
Q 2592 774 2467 656 
Q 2342 538 2172 470 
Q 2003 403 1798 403 
Q 1376 403 1104 636 
Q 832 870 832 1280 
z
" transform="scale(0.015625)"/>
       </defs>
       <use xlink:href="#HelveticaNeue-4d"/>
       <use xlink:href="#HelveticaNeue-61" transform="translate(87.099991 0)"/>
       <use xlink:href="#HelveticaNeue-72" transform="translate(140.799988 0)"/>
       <use xlink:href="#HelveticaNeue-20" transform="translate(174.099976 0)"/>
       <use xlink:href="#HelveticaNeue-32" transform="translate(201.899963 0)"/>
       <use xlink:href="#HelveticaNeue-38" transform="translate(257.499954 0)"/>
      </g>
     </g>
    </g>
    <g id="xtick_9">
     <g id="line2d_9"/>
     <g id="text_9">
      <!-- Mar 29 -->
      <g style="fill: #2d2020" transform="translate(657.032557 224.71435) scale(0.12 -0.12)">
       <defs>
        <path id="HelveticaNeue-39" d="M 858 1094 
L 314 1094 
Q 365 506 742 218 
Q 1120 -70 1690 -70 
Q 2515 -70 2889 560 
Q 3264 1190 3264 2368 
Q 3264 3014 3139 3433 
Q 3014 3853 2803 4096 
Q 2592 4339 2310 4438 
Q 2029 4538 1709 4538 
Q 1382 4538 1107 4429 
Q 832 4320 633 4125 
Q 435 3930 326 3658 
Q 218 3386 218 3059 
Q 218 2726 310 2444 
Q 403 2163 585 1964 
Q 768 1766 1037 1654 
Q 1306 1542 1651 1542 
Q 1984 1542 2265 1712 
Q 2547 1882 2701 2170 
L 2714 2157 
Q 2688 1267 2438 835 
Q 2189 403 1690 403 
Q 1363 403 1126 582 
Q 890 762 858 1094 
z
M 2618 3021 
Q 2618 2822 2554 2640 
Q 2490 2458 2368 2320 
Q 2246 2182 2073 2102 
Q 1901 2022 1690 2022 
Q 1491 2022 1328 2102 
Q 1165 2182 1046 2316 
Q 928 2451 861 2624 
Q 794 2797 794 2982 
Q 794 3194 842 3386 
Q 890 3578 995 3728 
Q 1101 3878 1270 3968 
Q 1440 4058 1683 4058 
Q 1914 4058 2086 3974 
Q 2259 3891 2377 3747 
Q 2496 3603 2557 3417 
Q 2618 3232 2618 3021 
z
" transform="scale(0.015625)"/>
       </defs>
       <use xlink:href="#HelveticaNeue-4d"/>
       <use xlink:href="#HelveticaNeue-61" transform="translate(87.099991 0)"/>
       <use xlink:href="#HelveticaNeue-72" transform="translate(140.799988 0)"/>
       <use xlink:href="#HelveticaNeue-20" transform="translate(174.099976 0)"/>
       <use xlink:href="#HelveticaNeue-32" transform="translate(201.899963 0)"/>
       <use xlink:href="#HelveticaNeue-39" transform="translate(257.499954 0)"/>
      </g>
     </g>
    </g>
   </g>
   <g id="matplotlib.axis_2">
    <g id="ytick_1">
     <g id="line2d_10">
      <path d="M 26.5425 206.1456 
L 691.653214 206.1456 
" clip-path="url(#p21b2bfa463)" style="fill: none; stroke: #e0d0d0; stroke-opacity: 0.6; stroke-width: 0.6; stroke-linecap: square"/>
     </g>
     <g id="line2d_11"/>
     <g id="text_10">
      <!-- 0 -->
      <g style="fill: #2d2020" transform="translate(13.87125 210.429975) scale(0.12 -0.12)">
       <defs>
        <path id="HelveticaNeue-30" d="M 845 2234 
Q 845 2400 848 2601 
Q 851 2803 880 3004 
Q 909 3206 963 3398 
Q 1018 3590 1123 3734 
Q 1229 3878 1389 3968 
Q 1549 4058 1779 4058 
Q 2010 4058 2170 3968 
Q 2330 3878 2435 3734 
Q 2541 3590 2595 3398 
Q 2650 3206 2678 3004 
Q 2707 2803 2710 2601 
Q 2714 2400 2714 2234 
Q 2714 1978 2698 1661 
Q 2682 1344 2595 1065 
Q 2509 787 2317 595 
Q 2125 403 1779 403 
Q 1434 403 1242 595 
Q 1050 787 963 1065 
Q 877 1344 861 1661 
Q 845 1978 845 2234 
z
M 269 2227 
Q 269 1978 281 1709 
Q 294 1440 345 1184 
Q 397 928 493 701 
Q 589 474 755 301 
Q 922 128 1174 29 
Q 1427 -70 1779 -70 
Q 2138 -70 2387 29 
Q 2637 128 2803 301 
Q 2970 474 3066 701 
Q 3162 928 3213 1184 
Q 3264 1440 3277 1709 
Q 3290 1978 3290 2227 
Q 3290 2477 3277 2745 
Q 3264 3014 3213 3270 
Q 3162 3526 3066 3756 
Q 2970 3987 2803 4160 
Q 2637 4333 2384 4435 
Q 2131 4538 1779 4538 
Q 1427 4538 1174 4435 
Q 922 4333 755 4160 
Q 589 3987 493 3756 
Q 397 3526 345 3270 
Q 294 3014 281 2745 
Q 269 2477 269 2227 
z
" transform="scale(0.015625)"/>
       </defs>
       <use xlink:href="#HelveticaNeue-30"/>
      </g>
     </g>
    </g>
    <g id="ytick_2">
     <g id="line2d_12">
      <path d="M 26.5425 163.083782 
L 691.653214 163.083782 
" clip-path="url(#p21b2bfa463)" style="fill: none; stroke: #e0d0d0; stroke-opacity: 0.6; stroke-width: 0.6; stroke-linecap: square"/>
     </g>
     <g id="line2d_13"/>
     <g id="text_11">
      <!-- 10 -->
      <g style="fill: #2d2020" transform="translate(7.2 167.368157) scale(0.12 -0.12)">
       <use xlink:href="#HelveticaNeue-31"/>
       <use xlink:href="#HelveticaNeue-30" transform="translate(55.599991 0)"/>
      </g>
     </g>
    </g>
    <g id="ytick_3">
     <g id="line2d_14">
      <path d="M 26.5425 120.021964 
L 691.653214 120.021964 
" clip-path="url(#p21b2bfa463)" style="fill: none; stroke: #e0d0d0; stroke-opacity: 0.6; stroke-width: 0.6; stroke-linecap: square"/>
     </g>
     <g id="line2d_15"/>
     <g id="text_12">
      <!-- 20 -->
      <g style="fill: #2d2020" transform="translate(7.2 124.306339) scale(0.12 -0.12)">
       <use xlink:href="#HelveticaNeue-32"/>
       <use xlink:href="#HelveticaNeue-30" transform="translate(55.599991 0)"/>
      </g>
     </g>
    </g>
    <g id="ytick_4">
     <g id="line2d_16">
      <path d="M 26.5425 76.960145 
L 691.653214 76.960145 
" clip-path="url(#p21b2bfa463)" style="fill: none; stroke: #e0d0d0; stroke-opacity: 0.6; stroke-width: 0.6; stroke-linecap: square"/>
     </g>
     <g id="line2d_17"/>
     <g id="text_13">
      <!-- 30 -->
      <g style="fill: #2d2020" transform="translate(7.2 81.24452) scale(0.12 -0.12)">
       <use xlink:href="#HelveticaNeue-33"/>
       <use xlink:href="#HelveticaNeue-30" transform="translate(55.599991 0)"/>
      </g>
     </g>
    </g>
    <g id="ytick_5">
     <g id="line2d_18">
      <path d="M 26.5425 33.898327 
L 691.653214 33.898327 
" clip-path="url(#p21b2bfa463)" style="fill: none; stroke: #e0d0d0; stroke-opacity: 0.6; stroke-width: 0.6; stroke-linecap: square"/>
     </g>
     <g id="line2d_19"/>
     <g id="text_14">
      <!-- 40 -->
      <g style="fill: #2d2020" transform="translate(7.2 38.182702) scale(0.12 -0.12)">
       <use xlink:href="#HelveticaNeue-34"/>
       <use xlink:href="#HelveticaNeue-30" transform="translate(55.599991 0)"/>
      </g>
     </g>
    </g>
   </g>
   <g id="FillBetweenPolyCollection_1">
    <defs>
     <path id="mcea9354f0d" d="M 121.558316 -49.473495 
L 121.558316 -49.473495 
L 359.097857 -49.473495 
L 438.277704 -49.473495 
L 517.457551 -49.473495 
L 596.637398 -49.473495 
L 596.637398 -152.821859 
L 596.637398 -152.821859 
L 517.457551 -148.515677 
L 438.277704 -139.903313 
L 359.097857 -101.147677 
L 121.558316 -49.473495 
z
" style="stroke: #f2dada; stroke-opacity: 0.8"/>
    </defs>
    <g clip-path="url(#p21b2bfa463)">
     <use xlink:href="#mcea9354f0d" x="0" y="255.619095" style="fill: #f2dada; fill-opacity: 0.8; stroke: #f2dada; stroke-opacity: 0.8"/>
    </g>
   </g>
   <g id="FillBetweenPolyCollection_2">
    <defs>
     <path id="mefc187cdfc" d="M 121.558316 -49.473495 
L 121.558316 -49.473495 
L 359.097857 -49.473495 
L 438.277704 -49.473495 
L 517.457551 -49.473495 
L 596.637398 -49.473495 
L 596.637398 -152.821859 
L 596.637398 -152.821859 
L 517.457551 -148.515677 
L 438.277704 -139.903313 
L 359.097857 -101.147677 
L 121.558316 -49.473495 
z
" style="stroke: #d94040; stroke-opacity: 0.08"/>
    </defs>
    <g clip-path="url(#p21b2bfa463)">
     <use xlink:href="#mefc187cdfc" x="0" y="255.619095" style="fill: #d94040; fill-opacity: 0.08; stroke: #d94040; stroke-opacity: 0.08"/>
    </g>
   </g>
   <g id="line2d_20">
    <path d="M 26.5425 206.1456 
L 691.653214 206.1456 
" clip-path="url(#p21b2bfa463)" style="fill: none; stroke: #e0d0d0; stroke-linecap: square"/>
   </g>
   <g id="text_15">
    <g id="patch_3">
     <path d="M 570.558643 51.622847 
L 671.699893 51.622847 
Q 678.699893 51.622847 678.699893 44.622847 
L 678.699893 31.073472 
Q 678.699893 24.073472 671.699893 24.073472 
L 570.558643 24.073472 
Q 563.558643 24.073472 563.558643 31.073472 
L 563.558643 44.622847 
Q 563.558643 51.622847 570.558643 51.622847 
z
" style="fill: #ffffff; stroke: #e0d0d0; stroke-linejoin: miter"/>
    </g>
    <!--   24 / 330   -->
    <g style="fill: #2d2020" transform="translate(570.558643 41.711284) scale(0.14 -0.14)">
     <defs>
      <path id="DejaVuSansMono-Bold-20" transform="scale(0.015625)"/>
      <path id="DejaVuSansMono-Bold-32" d="M 1356 813 
L 3322 813 
L 3322 0 
L 359 0 
L 359 788 
L 859 1319 
Q 1750 2266 1941 2484 
Q 2175 2753 2278 2961 
Q 2381 3169 2381 3372 
Q 2381 3684 2192 3854 
Q 2003 4025 1656 4025 
Q 1409 4025 1101 3926 
Q 794 3828 459 3641 
L 459 4500 
Q 794 4622 1114 4686 
Q 1434 4750 1728 4750 
Q 2469 4750 2892 4404 
Q 3316 4059 3316 3463 
Q 3316 3188 3223 2947 
Q 3131 2706 2906 2413 
Q 2741 2200 1997 1456 
Q 1594 1053 1356 813 
z
" transform="scale(0.015625)"/>
      <path id="DejaVuSansMono-Bold-34" d="M 2169 3641 
L 991 1797 
L 2169 1797 
L 2169 3641 
z
M 2088 4666 
L 3053 4666 
L 3053 1797 
L 3566 1797 
L 3566 1006 
L 3053 1006 
L 3053 0 
L 2169 0 
L 2169 1006 
L 319 1006 
L 319 1900 
L 2088 4666 
z
" transform="scale(0.015625)"/>
      <path id="DejaVuSansMono-Bold-2f" d="M 2809 4666 
L 3500 4666 
L 1044 -594 
L 353 -594 
L 2809 4666 
z
" transform="scale(0.015625)"/>
      <path id="DejaVuSansMono-Bold-33" d="M 1716 2088 
L 1222 2088 
L 1222 2900 
L 1716 2900 
Q 2059 2900 2248 3036 
Q 2438 3172 2438 3419 
Q 2438 3678 2248 3823 
Q 2059 3969 1716 3969 
Q 1453 3969 1153 3903 
Q 853 3838 531 3713 
L 531 4550 
Q 853 4647 1165 4698 
Q 1478 4750 1766 4750 
Q 2503 4750 2915 4428 
Q 3328 4106 3328 3541 
Q 3328 3125 3090 2861 
Q 2853 2597 2413 2516 
Q 2913 2428 3175 2117 
Q 3438 1806 3438 1300 
Q 3438 622 3003 265 
Q 2569 -91 1741 -91 
Q 1388 -91 1045 -31 
Q 703 28 391 141 
L 391 997 
Q 684 850 1025 773 
Q 1366 697 1741 697 
Q 2116 697 2334 870 
Q 2553 1044 2553 1338 
Q 2553 1697 2334 1892 
Q 2116 2088 1716 2088 
z
" transform="scale(0.015625)"/>
      <path id="DejaVuSansMono-Bold-30" d="M 1538 2328 
Q 1538 2494 1650 2606 
Q 1763 2719 1925 2719 
Q 2091 2719 2203 2606 
Q 2316 2494 2316 2328 
Q 2316 2166 2203 2053 
Q 2091 1941 1925 1941 
Q 1763 1941 1650 2052 
Q 1538 2163 1538 2328 
z
M 1925 3969 
Q 1606 3969 1459 3578 
Q 1313 3188 1313 2328 
Q 1313 1472 1459 1081 
Q 1606 691 1925 691 
Q 2247 691 2394 1081 
Q 2541 1472 2541 2328 
Q 2541 3188 2394 3578 
Q 2247 3969 1925 3969 
z
M 384 2328 
Q 384 3541 768 4145 
Q 1153 4750 1925 4750 
Q 2700 4750 3084 4147 
Q 3469 3544 3469 2328 
Q 3469 1116 3084 512 
Q 2700 -91 1925 -91 
Q 1153 -91 768 514 
Q 384 1119 384 2328 
z
" transform="scale(0.015625)"/>
     </defs>
     <use xlink:href="#DejaVuSansMono-Bold-20"/>
     <use xlink:href="#DejaVuSansMono-Bold-20" transform="translate(60.205078 0)"/>
     <use xlink:href="#DejaVuSansMono-Bold-32" transform="translate(120.410156 0)"/>
     <use xlink:href="#DejaVuSansMono-Bold-34" transform="translate(180.615234 0)"/>
     <use xlink:href="#DejaVuSansMono-Bold-20" transform="translate(240.820312 0)"/>
     <use xlink:href="#DejaVuSansMono-Bold-2f" transform="translate(301.025391 0)"/>
     <use xlink:href="#DejaVuSansMono-Bold-20" transform="translate(361.230469 0)"/>
     <use xlink:href="#DejaVuSansMono-Bold-33" transform="translate(421.435547 0)"/>
     <use xlink:href="#DejaVuSansMono-Bold-33" transform="translate(481.640625 0)"/>
     <use xlink:href="#DejaVuSansMono-Bold-30" transform="translate(541.845703 0)"/>
     <use xlink:href="#DejaVuSansMono-Bold-20" transform="translate(602.050781 0)"/>
     <use xlink:href="#DejaVuSansMono-Bold-20" transform="translate(662.255859 0)"/>
    </g>
   </g>
   <g id="text_16">
    <!-- JAILBROKEN ARENA -->
    <g style="fill: #d94040" transform="translate(271.762701 35.968773) scale(0.18 -0.18)">
     <defs>
      <path id="HelveticaNeue-4a" d="M 2822 1139 
L 2822 4570 
L 2214 4570 
L 2214 1229 
Q 2214 851 2057 627 
Q 1901 403 1485 403 
Q 1261 403 1117 470 
Q 973 538 893 659 
Q 813 781 781 947 
Q 749 1114 749 1312 
L 749 1504 
L 141 1504 
L 141 1222 
Q 141 570 486 234 
Q 832 -102 1472 -102 
Q 1856 -102 2115 3 
Q 2374 109 2531 285 
Q 2688 461 2755 685 
Q 2822 909 2822 1139 
z
" transform="scale(0.015625)"/>
      <path id="HelveticaNeue-41" d="M 1286 1888 
L 2061 4019 
L 2074 4019 
L 2835 1888 
L 1286 1888 
z
M 1741 4570 
L -38 0 
L 582 0 
L 1094 1376 
L 3027 1376 
L 3526 0 
L 4198 0 
L 2413 4570 
L 1741 4570 
z
" transform="scale(0.015625)"/>
      <path id="HelveticaNeue-49" d="M 525 4570 
L 525 0 
L 1133 0 
L 1133 4570 
L 525 4570 
z
" transform="scale(0.015625)"/>
      <path id="HelveticaNeue-4c" d="M 499 4570 
L 499 0 
L 3526 0 
L 3526 512 
L 1107 512 
L 1107 4570 
L 499 4570 
z
" transform="scale(0.015625)"/>
      <path id="HelveticaNeue-42" d="M 1107 2605 
L 1107 4058 
L 2323 4058 
Q 2522 4058 2698 4035 
Q 2874 4013 3008 3936 
Q 3142 3859 3219 3718 
Q 3296 3578 3296 3334 
Q 3296 2970 3069 2787 
Q 2842 2605 2323 2605 
L 1107 2605 
z
M 499 4570 
L 499 0 
L 2707 0 
Q 3046 0 3305 112 
Q 3565 224 3741 406 
Q 3917 589 4006 825 
Q 4096 1062 4096 1312 
Q 4096 1734 3872 2028 
Q 3648 2323 3226 2413 
L 3226 2426 
Q 3552 2554 3728 2819 
Q 3904 3085 3904 3450 
Q 3904 3795 3747 4032 
Q 3590 4269 3366 4403 
Q 3264 4467 3120 4499 
Q 2976 4531 2809 4547 
Q 2643 4563 2473 4566 
Q 2304 4570 2157 4570 
L 499 4570 
z
M 1107 512 
L 1107 2093 
L 2496 2093 
Q 2688 2093 2867 2057 
Q 3046 2022 3184 1936 
Q 3322 1850 3405 1702 
Q 3488 1555 3488 1331 
Q 3488 947 3261 729 
Q 3034 512 2630 512 
L 1107 512 
z
" transform="scale(0.015625)"/>
      <path id="HelveticaNeue-52" d="M 499 4570 
L 499 0 
L 1107 0 
L 1107 1952 
L 2592 1952 
Q 2816 1952 2950 1885 
Q 3085 1818 3168 1706 
Q 3251 1594 3289 1443 
Q 3328 1293 3354 1126 
Q 3386 960 3392 787 
Q 3398 614 3404 464 
Q 3411 314 3433 192 
Q 3456 70 3520 0 
L 4198 0 
Q 4102 115 4054 265 
Q 4006 416 3980 582 
Q 3955 749 3948 921 
Q 3942 1094 3930 1261 
Q 3910 1427 3875 1580 
Q 3840 1734 3766 1859 
Q 3693 1984 3568 2073 
Q 3443 2163 3245 2202 
L 3245 2214 
Q 3661 2330 3849 2643 
Q 4038 2957 4038 3373 
Q 4038 3930 3670 4250 
Q 3302 4570 2650 4570 
L 499 4570 
z
M 2374 2464 
L 1107 2464 
L 1107 4058 
L 2618 4058 
Q 3046 4058 3238 3840 
Q 3430 3622 3430 3277 
Q 3430 3027 3344 2870 
Q 3258 2714 3114 2621 
Q 2970 2528 2778 2496 
Q 2586 2464 2374 2464 
z
" transform="scale(0.015625)"/>
      <path id="HelveticaNeue-4f" d="M 851 2285 
Q 851 2630 940 2966 
Q 1030 3302 1222 3571 
Q 1414 3840 1715 4003 
Q 2016 4166 2432 4166 
Q 2848 4166 3149 4003 
Q 3450 3840 3642 3571 
Q 3834 3302 3923 2966 
Q 4013 2630 4013 2285 
Q 4013 1939 3923 1603 
Q 3834 1267 3642 998 
Q 3450 730 3149 566 
Q 2848 403 2432 403 
Q 2016 403 1715 566 
Q 1414 730 1222 998 
Q 1030 1267 940 1603 
Q 851 1939 851 2285 
z
M 243 2285 
Q 243 1818 380 1386 
Q 518 954 793 621 
Q 1069 288 1478 93 
Q 1888 -102 2432 -102 
Q 2976 -102 3385 93 
Q 3795 288 4070 621 
Q 4346 954 4483 1386 
Q 4621 1818 4621 2285 
Q 4621 2752 4483 3184 
Q 4346 3616 4070 3949 
Q 3795 4282 3385 4480 
Q 2976 4678 2432 4678 
Q 1888 4678 1478 4480 
Q 1069 4282 793 3949 
Q 518 3616 380 3184 
Q 243 2752 243 2285 
z
" transform="scale(0.015625)"/>
      <path id="HelveticaNeue-4b" d="M 499 4570 
L 499 0 
L 1107 0 
L 1107 1600 
L 1869 2310 
L 3520 0 
L 4288 0 
L 2285 2726 
L 4211 4570 
L 3424 4570 
L 1107 2291 
L 1107 4570 
L 499 4570 
z
" transform="scale(0.015625)"/>
      <path id="HelveticaNeue-45" d="M 499 4570 
L 499 0 
L 3674 0 
L 3674 512 
L 1107 512 
L 1107 2093 
L 3482 2093 
L 3482 2605 
L 1107 2605 
L 1107 4058 
L 3654 4058 
L 3654 4570 
L 499 4570 
z
" transform="scale(0.015625)"/>
      <path id="HelveticaNeue-4e" d="M 493 4570 
L 493 0 
L 1069 0 
L 1069 3667 
L 1082 3667 
L 3469 0 
L 4134 0 
L 4134 4570 
L 3558 4570 
L 3558 864 
L 3546 864 
L 1139 4570 
L 493 4570 
z
" transform="scale(0.015625)"/>
     </defs>
     <use xlink:href="#HelveticaNeue-4a"/>
     <use xlink:href="#HelveticaNeue-41" transform="translate(51.899994 0)"/>
     <use xlink:href="#HelveticaNeue-49" transform="translate(116.699982 0)"/>
     <use xlink:href="#HelveticaNeue-4c" transform="translate(142.599976 0)"/>
     <use xlink:href="#HelveticaNeue-42" transform="translate(198.199966 0)"/>
     <use xlink:href="#HelveticaNeue-52" transform="translate(266.699951 0)"/>
     <use xlink:href="#HelveticaNeue-4f" transform="translate(335.199936 0)"/>
     <use xlink:href="#HelveticaNeue-4b" transform="translate(411.199921 0)"/>
     <use xlink:href="#HelveticaNeue-45" transform="translate(477.899918 0)"/>
     <use xlink:href="#HelveticaNeue-4e" transform="translate(538.999908 0)"/>
     <use xlink:href="#HelveticaNeue-20" transform="translate(611.19989 0)"/>
     <use xlink:href="#HelveticaNeue-41" transform="translate(638.999878 0)"/>
     <use xlink:href="#HelveticaNeue-52" transform="translate(703.799866 0)"/>
     <use xlink:href="#HelveticaNeue-45" transform="translate(772.29985 0)"/>
     <use xlink:href="#HelveticaNeue-4e" transform="translate(833.399841 0)"/>
     <use xlink:href="#HelveticaNeue-41" transform="translate(905.599823 0)"/>
    </g>
   </g>
   <g id="text_17">
    <!-- @wuyoscar (13)  ·  @HanxunH (6)  ·  @fresh-ma (3)  ·  @zry29 (2) -->
    <g style="fill: #6b5555" transform="translate(189.875357 245.93472) scale(0.12 -0.12)">
     <defs>
      <path id="HelveticaNeue-40" d="M 3418 1728 
L 3955 3546 
L 3552 3546 
L 3405 3142 
Q 3296 3430 3104 3548 
Q 2912 3667 2688 3667 
Q 2349 3667 2070 3507 
Q 1792 3347 1597 3091 
Q 1402 2835 1293 2508 
Q 1184 2182 1184 1850 
Q 1184 1638 1251 1452 
Q 1318 1267 1436 1132 
Q 1555 998 1724 918 
Q 1894 838 2099 838 
Q 2336 838 2541 969 
Q 2746 1101 2893 1267 
L 2912 1267 
Q 2925 1056 3040 953 
Q 3155 851 3322 851 
Q 3546 851 3808 985 
Q 4070 1120 4294 1363 
Q 4518 1606 4668 1948 
Q 4819 2291 4819 2707 
Q 4819 3142 4646 3504 
Q 4474 3866 4176 4125 
Q 3878 4384 3481 4531 
Q 3085 4678 2643 4678 
Q 2157 4678 1725 4492 
Q 1293 4307 969 3984 
Q 646 3661 457 3229 
Q 269 2797 269 2304 
Q 269 1792 454 1353 
Q 640 915 963 592 
Q 1286 269 1724 83 
Q 2163 -102 2669 -102 
Q 2976 -102 3270 -28 
Q 3565 45 3824 189 
Q 4083 333 4300 541 
Q 4518 749 4672 1018 
L 4269 1018 
Q 3994 666 3568 454 
Q 3142 243 2682 243 
Q 2278 243 1920 400 
Q 1562 557 1290 829 
Q 1018 1101 861 1472 
Q 704 1843 704 2272 
Q 704 2694 854 3065 
Q 1005 3437 1267 3718 
Q 1530 4000 1885 4163 
Q 2240 4326 2650 4326 
Q 2989 4326 3299 4211 
Q 3610 4096 3853 3881 
Q 4096 3667 4240 3360 
Q 4384 3053 4384 2675 
Q 4384 2419 4301 2156 
Q 4218 1894 4090 1683 
Q 3962 1472 3805 1337 
Q 3648 1203 3501 1203 
Q 3347 1203 3347 1402 
Q 3347 1472 3369 1558 
Q 3392 1645 3418 1728 
z
M 2688 3232 
Q 2790 3232 2883 3181 
Q 2976 3130 3049 3050 
Q 3123 2970 3164 2861 
Q 3206 2752 3206 2637 
Q 3206 2438 3129 2201 
Q 3053 1965 2918 1757 
Q 2784 1549 2605 1411 
Q 2426 1274 2214 1274 
Q 1971 1274 1817 1450 
Q 1664 1626 1664 1894 
Q 1664 2106 1741 2339 
Q 1818 2573 1952 2771 
Q 2086 2970 2275 3101 
Q 2464 3232 2688 3232 
z
" transform="scale(0.015625)"/>
      <path id="HelveticaNeue-77" d="M 3686 0 
L 4742 3309 
L 4179 3309 
L 3437 602 
L 3424 602 
L 2733 3309 
L 2138 3309 
L 1472 602 
L 1459 602 
L 710 3309 
L 109 3309 
L 1171 0 
L 1760 0 
L 2426 2630 
L 2438 2630 
L 3110 0 
L 3686 0 
z
" transform="scale(0.015625)"/>
      <path id="HelveticaNeue-75" d="M 3149 0 
L 3149 3309 
L 2605 3309 
L 2605 1440 
Q 2605 1216 2544 1027 
Q 2483 838 2361 697 
Q 2240 557 2057 480 
Q 1875 403 1626 403 
Q 1312 403 1133 582 
Q 954 762 954 1069 
L 954 3309 
L 410 3309 
L 410 1133 
Q 410 864 464 643 
Q 518 422 652 262 
Q 787 102 1004 16 
Q 1222 -70 1549 -70 
Q 1914 -70 2182 74 
Q 2451 218 2624 525 
L 2637 525 
L 2637 0 
L 3149 0 
z
" transform="scale(0.015625)"/>
      <path id="HelveticaNeue-79" d="M 1709 -442 
Q 1613 -685 1520 -851 
Q 1427 -1018 1315 -1123 
Q 1203 -1229 1065 -1277 
Q 928 -1325 749 -1325 
Q 653 -1325 557 -1312 
Q 461 -1299 371 -1267 
L 371 -768 
Q 442 -800 534 -822 
Q 627 -845 691 -845 
Q 858 -845 970 -765 
Q 1082 -685 1139 -538 
L 1363 19 
L 51 3309 
L 666 3309 
L 1632 602 
L 1645 602 
L 2573 3309 
L 3149 3309 
L 1709 -442 
z
" transform="scale(0.015625)"/>
      <path id="HelveticaNeue-6f" d="M 806 1651 
Q 806 1952 886 2185 
Q 966 2419 1107 2579 
Q 1248 2739 1437 2822 
Q 1626 2906 1837 2906 
Q 2048 2906 2237 2822 
Q 2426 2739 2566 2579 
Q 2707 2419 2787 2185 
Q 2867 1952 2867 1651 
Q 2867 1350 2787 1116 
Q 2707 883 2566 726 
Q 2426 570 2237 486 
Q 2048 403 1837 403 
Q 1626 403 1437 486 
Q 1248 570 1107 726 
Q 966 883 886 1116 
Q 806 1350 806 1651 
z
M 230 1651 
Q 230 1286 332 972 
Q 435 659 640 425 
Q 845 192 1145 61 
Q 1446 -70 1837 -70 
Q 2234 -70 2531 61 
Q 2829 192 3033 425 
Q 3238 659 3340 972 
Q 3443 1286 3443 1651 
Q 3443 2016 3340 2333 
Q 3238 2650 3033 2883 
Q 2829 3117 2531 3251 
Q 2234 3386 1837 3386 
Q 1446 3386 1145 3251 
Q 845 3117 640 2883 
Q 435 2650 332 2333 
Q 230 2016 230 1651 
z
" transform="scale(0.015625)"/>
      <path id="HelveticaNeue-73" d="M 742 1043 
L 198 1043 
Q 211 736 326 521 
Q 442 307 634 176 
Q 826 45 1075 -12 
Q 1325 -70 1600 -70 
Q 1850 -70 2102 -22 
Q 2355 26 2556 147 
Q 2758 269 2883 467 
Q 3008 666 3008 966 
Q 3008 1203 2915 1363 
Q 2822 1523 2672 1628 
Q 2522 1734 2326 1798 
Q 2131 1862 1926 1907 
Q 1734 1952 1542 1993 
Q 1350 2035 1196 2096 
Q 1043 2157 944 2249 
Q 845 2342 845 2483 
Q 845 2611 909 2691 
Q 973 2771 1075 2819 
Q 1178 2867 1302 2886 
Q 1427 2906 1549 2906 
Q 1683 2906 1814 2877 
Q 1946 2848 2054 2784 
Q 2163 2720 2233 2614 
Q 2304 2509 2317 2349 
L 2861 2349 
Q 2842 2650 2733 2851 
Q 2624 3053 2441 3171 
Q 2259 3290 2022 3338 
Q 1786 3386 1504 3386 
Q 1286 3386 1065 3331 
Q 845 3277 669 3165 
Q 493 3053 381 2873 
Q 269 2694 269 2445 
Q 269 2125 429 1945 
Q 589 1766 829 1667 
Q 1069 1568 1350 1513 
Q 1632 1459 1872 1392 
Q 2112 1325 2272 1216 
Q 2432 1107 2432 896 
Q 2432 742 2355 643 
Q 2278 544 2160 493 
Q 2042 442 1901 422 
Q 1760 403 1632 403 
Q 1466 403 1309 435 
Q 1152 467 1027 540 
Q 902 614 825 739 
Q 749 864 742 1043 
z
" transform="scale(0.015625)"/>
      <path id="HelveticaNeue-63" d="M 2656 2246 
L 3219 2246 
Q 3187 2541 3065 2755 
Q 2944 2970 2755 3110 
Q 2566 3251 2320 3318 
Q 2074 3386 1792 3386 
Q 1402 3386 1107 3248 
Q 813 3110 617 2870 
Q 422 2630 326 2307 
Q 230 1984 230 1613 
Q 230 1242 329 931 
Q 429 621 624 397 
Q 819 173 1110 51 
Q 1402 -70 1779 -70 
Q 2413 -70 2781 262 
Q 3149 595 3238 1210 
L 2682 1210 
Q 2630 826 2403 614 
Q 2176 403 1773 403 
Q 1517 403 1331 505 
Q 1146 608 1030 777 
Q 915 947 860 1164 
Q 806 1382 806 1613 
Q 806 1862 857 2096 
Q 909 2330 1027 2509 
Q 1146 2688 1344 2797 
Q 1542 2906 1837 2906 
Q 2182 2906 2387 2733 
Q 2592 2560 2656 2246 
z
" transform="scale(0.015625)"/>
      <path id="HelveticaNeue-28" d="M 1306 -1261 
L 1722 -1261 
Q 1267 -525 1072 198 
Q 877 922 877 1728 
Q 877 2515 1069 3232 
Q 1261 3949 1722 4678 
L 1306 4678 
Q 806 4019 553 3251 
Q 301 2483 301 1728 
Q 301 1306 371 922 
Q 442 538 573 173 
Q 704 -192 889 -547 
Q 1075 -902 1306 -1261 
z
" transform="scale(0.015625)"/>
      <path id="HelveticaNeue-29" d="M -58 -1261 
L 352 -1261 
Q 851 -602 1104 163 
Q 1357 928 1357 1683 
Q 1357 2106 1286 2490 
Q 1216 2874 1085 3242 
Q 954 3610 768 3965 
Q 582 4320 352 4678 
L -58 4678 
Q 390 3942 585 3216 
Q 781 2490 781 1683 
Q 781 902 589 182 
Q 397 -538 -58 -1261 
z
" transform="scale(0.015625)"/>
      <path id="HelveticaNeue-b7" d="M 480 1990 
Q 480 1824 605 1702 
Q 730 1581 896 1581 
Q 1056 1581 1177 1709 
Q 1299 1837 1299 1990 
Q 1299 2157 1177 2278 
Q 1056 2400 890 2400 
Q 723 2400 601 2278 
Q 480 2157 480 1990 
z
" transform="scale(0.015625)"/>
      <path id="HelveticaNeue-48" d="M 499 4570 
L 499 0 
L 1107 0 
L 1107 2093 
L 3514 2093 
L 3514 0 
L 4122 0 
L 4122 4570 
L 3514 4570 
L 3514 2605 
L 1107 2605 
L 1107 4570 
L 499 4570 
z
" transform="scale(0.015625)"/>
      <path id="HelveticaNeue-6e" d="M 410 3309 
L 410 0 
L 954 0 
L 954 1869 
Q 954 2093 1014 2281 
Q 1075 2470 1196 2611 
Q 1318 2752 1500 2829 
Q 1683 2906 1933 2906 
Q 2246 2906 2425 2726 
Q 2605 2547 2605 2240 
L 2605 0 
L 3149 0 
L 3149 2176 
Q 3149 2445 3094 2665 
Q 3040 2886 2905 3046 
Q 2771 3206 2553 3296 
Q 2336 3386 2010 3386 
Q 1274 3386 934 2784 
L 922 2784 
L 922 3309 
L 410 3309 
z
" transform="scale(0.015625)"/>
      <path id="HelveticaNeue-78" d="M 1299 1741 
L 58 0 
L 717 0 
L 1638 1370 
L 2560 0 
L 3258 0 
L 1978 1786 
L 3117 3309 
L 2464 3309 
L 1638 2150 
L 845 3309 
L 147 3309 
L 1299 1741 
z
" transform="scale(0.015625)"/>
      <path id="HelveticaNeue-66" d="M 634 2829 
L 634 0 
L 1178 0 
L 1178 2829 
L 1818 2829 
L 1818 3309 
L 1178 3309 
L 1178 3770 
Q 1178 3987 1286 4064 
Q 1395 4141 1594 4141 
Q 1664 4141 1747 4131 
Q 1830 4122 1901 4096 
L 1901 4570 
Q 1824 4595 1725 4608 
Q 1626 4621 1549 4621 
Q 1101 4621 867 4413 
Q 634 4205 634 3802 
L 634 3309 
L 77 3309 
L 77 2829 
L 634 2829 
z
" transform="scale(0.015625)"/>
      <path id="HelveticaNeue-65" d="M 2707 1971 
L 806 1971 
Q 819 2163 889 2332 
Q 960 2502 1081 2630 
Q 1203 2758 1372 2832 
Q 1542 2906 1754 2906 
Q 1958 2906 2128 2832 
Q 2298 2758 2422 2633 
Q 2547 2509 2620 2336 
Q 2694 2163 2707 1971 
z
M 3232 1050 
L 2694 1050 
Q 2624 723 2403 563 
Q 2182 403 1837 403 
Q 1568 403 1369 492 
Q 1171 582 1043 732 
Q 915 883 857 1078 
Q 800 1274 806 1491 
L 3283 1491 
Q 3296 1792 3229 2125 
Q 3162 2458 2986 2739 
Q 2810 3021 2518 3203 
Q 2227 3386 1786 3386 
Q 1446 3386 1161 3258 
Q 877 3130 669 2899 
Q 461 2669 345 2355 
Q 230 2042 230 1664 
Q 243 1286 342 966 
Q 442 646 640 416 
Q 838 186 1129 58 
Q 1421 -70 1818 -70 
Q 2381 -70 2752 211 
Q 3123 493 3232 1050 
z
" transform="scale(0.015625)"/>
      <path id="HelveticaNeue-68" d="M 410 4570 
L 410 0 
L 954 0 
L 954 1869 
Q 954 2093 1014 2281 
Q 1075 2470 1196 2611 
Q 1318 2752 1500 2829 
Q 1683 2906 1933 2906 
Q 2246 2906 2425 2726 
Q 2605 2547 2605 2240 
L 2605 0 
L 3149 0 
L 3149 2176 
Q 3149 2445 3094 2665 
Q 3040 2886 2905 3046 
Q 2771 3206 2553 3296 
Q 2336 3386 2010 3386 
Q 1862 3386 1705 3354 
Q 1549 3322 1405 3254 
Q 1261 3187 1145 3081 
Q 1030 2976 966 2822 
L 954 2822 
L 954 4570 
L 410 4570 
z
" transform="scale(0.015625)"/>
      <path id="HelveticaNeue-2d" d="M 320 2035 
L 320 1523 
L 2170 1523 
L 2170 2035 
L 320 2035 
z
" transform="scale(0.015625)"/>
      <path id="HelveticaNeue-6d" d="M 410 3309 
L 410 0 
L 954 0 
L 954 2061 
Q 954 2157 1002 2301 
Q 1050 2445 1155 2579 
Q 1261 2714 1430 2810 
Q 1600 2906 1837 2906 
Q 2022 2906 2140 2851 
Q 2259 2797 2329 2697 
Q 2400 2598 2429 2464 
Q 2458 2330 2458 2170 
L 2458 0 
L 3002 0 
L 3002 2061 
Q 3002 2445 3232 2675 
Q 3462 2906 3866 2906 
Q 4064 2906 4189 2848 
Q 4314 2790 4384 2691 
Q 4454 2592 4480 2457 
Q 4506 2323 4506 2170 
L 4506 0 
L 5050 0 
L 5050 2426 
Q 5050 2682 4970 2864 
Q 4890 3046 4746 3161 
Q 4602 3277 4400 3331 
Q 4198 3386 3949 3386 
Q 3622 3386 3350 3238 
Q 3078 3091 2912 2822 
Q 2810 3130 2560 3258 
Q 2310 3386 2003 3386 
Q 1306 3386 934 2822 
L 922 2822 
L 922 3309 
L 410 3309 
z
" transform="scale(0.015625)"/>
      <path id="HelveticaNeue-7a" d="M 141 416 
L 141 0 
L 2931 0 
L 2931 480 
L 819 480 
L 2842 2938 
L 2842 3309 
L 269 3309 
L 269 2829 
L 2138 2829 
L 141 416 
z
" transform="scale(0.015625)"/>
     </defs>
     <use xlink:href="#HelveticaNeue-40"/>
     <use xlink:href="#HelveticaNeue-77" transform="translate(79.999985 0)"/>
     <use xlink:href="#HelveticaNeue-75" transform="translate(155.799973 0)"/>
     <use xlink:href="#HelveticaNeue-79" transform="translate(211.399963 0)"/>
     <use xlink:href="#HelveticaNeue-6f" transform="translate(261.399948 0)"/>
     <use xlink:href="#HelveticaNeue-73" transform="translate(318.799942 0)"/>
     <use xlink:href="#HelveticaNeue-63" transform="translate(368.799927 0)"/>
     <use xlink:href="#HelveticaNeue-61" transform="translate(422.499924 0)"/>
     <use xlink:href="#HelveticaNeue-72" transform="translate(476.199921 0)"/>
     <use xlink:href="#HelveticaNeue-20" transform="translate(509.499908 0)"/>
     <use xlink:href="#HelveticaNeue-28" transform="translate(537.299896 0)"/>
     <use xlink:href="#HelveticaNeue-31" transform="translate(563.19989 0)"/>
     <use xlink:href="#HelveticaNeue-33" transform="translate(618.799881 0)"/>
     <use xlink:href="#HelveticaNeue-29" transform="translate(674.399872 0)"/>
     <use xlink:href="#HelveticaNeue-20" transform="translate(700.299866 0)"/>
     <use xlink:href="#HelveticaNeue-20" transform="translate(728.099854 0)"/>
     <use xlink:href="#HelveticaNeue-b7" transform="translate(755.899841 0)"/>
     <use xlink:href="#HelveticaNeue-20" transform="translate(783.699829 0)"/>
     <use xlink:href="#HelveticaNeue-20" transform="translate(811.499817 0)"/>
     <use xlink:href="#HelveticaNeue-40" transform="translate(839.299805 0)"/>
     <use xlink:href="#HelveticaNeue-48" transform="translate(919.299789 0)"/>
     <use xlink:href="#HelveticaNeue-61" transform="translate(991.499771 0)"/>
     <use xlink:href="#HelveticaNeue-6e" transform="translate(1045.199768 0)"/>
     <use xlink:href="#HelveticaNeue-78" transform="translate(1100.799759 0)"/>
     <use xlink:href="#HelveticaNeue-75" transform="translate(1152.599747 0)"/>
     <use xlink:href="#HelveticaNeue-6e" transform="translate(1208.199738 0)"/>
     <use xlink:href="#HelveticaNeue-48" transform="translate(1263.799728 0)"/>
     <use xlink:href="#HelveticaNeue-20" transform="translate(1335.99971 0)"/>
     <use xlink:href="#HelveticaNeue-28" transform="translate(1363.799698 0)"/>
     <use xlink:href="#HelveticaNeue-36" transform="translate(1389.699692 0)"/>
     <use xlink:href="#HelveticaNeue-29" transform="translate(1445.299683 0)"/>
     <use xlink:href="#HelveticaNeue-20" transform="translate(1471.199677 0)"/>
     <use xlink:href="#HelveticaNeue-20" transform="translate(1498.999664 0)"/>
     <use xlink:href="#HelveticaNeue-b7" transform="translate(1526.799652 0)"/>
     <use xlink:href="#HelveticaNeue-20" transform="translate(1554.59964 0)"/>
     <use xlink:href="#HelveticaNeue-20" transform="translate(1582.399628 0)"/>
     <use xlink:href="#HelveticaNeue-40" transform="translate(1610.199615 0)"/>
     <use xlink:href="#HelveticaNeue-66" transform="translate(1690.1996 0)"/>
     <use xlink:href="#HelveticaNeue-72" transform="translate(1719.799591 0)"/>
     <use xlink:href="#HelveticaNeue-65" transform="translate(1751.349579 0)"/>
     <use xlink:href="#HelveticaNeue-73" transform="translate(1805.049576 0)"/>
     <use xlink:href="#HelveticaNeue-68" transform="translate(1855.049561 0)"/>
     <use xlink:href="#HelveticaNeue-2d" transform="translate(1910.649551 0)"/>
     <use xlink:href="#HelveticaNeue-6d" transform="translate(1949.549545 0)"/>
     <use xlink:href="#HelveticaNeue-61" transform="translate(2034.849533 0)"/>
     <use xlink:href="#HelveticaNeue-20" transform="translate(2088.54953 0)"/>
     <use xlink:href="#HelveticaNeue-28" transform="translate(2116.349518 0)"/>
     <use xlink:href="#HelveticaNeue-33" transform="translate(2142.249512 0)"/>
     <use xlink:href="#HelveticaNeue-29" transform="translate(2197.849503 0)"/>
     <use xlink:href="#HelveticaNeue-20" transform="translate(2223.749496 0)"/>
     <use xlink:href="#HelveticaNeue-20" transform="translate(2251.549484 0)"/>
     <use xlink:href="#HelveticaNeue-b7" transform="translate(2279.349472 0)"/>
     <use xlink:href="#HelveticaNeue-20" transform="translate(2307.14946 0)"/>
     <use xlink:href="#HelveticaNeue-20" transform="translate(2334.949448 0)"/>
     <use xlink:href="#HelveticaNeue-40" transform="translate(2362.749435 0)"/>
     <use xlink:href="#HelveticaNeue-7a" transform="translate(2442.74942 0)"/>
     <use xlink:href="#HelveticaNeue-72" transform="translate(2490.749405 0)"/>
     <use xlink:href="#HelveticaNeue-79" transform="translate(2524.049393 0)"/>
     <use xlink:href="#HelveticaNeue-32" transform="translate(2574.049377 0)"/>
     <use xlink:href="#HelveticaNeue-39" transform="translate(2629.649368 0)"/>
     <use xlink:href="#HelveticaNeue-20" transform="translate(2685.249359 0)"/>
     <use xlink:href="#HelveticaNeue-28" transform="translate(2713.049347 0)"/>
     <use xlink:href="#HelveticaNeue-32" transform="translate(2738.949341 0)"/>
     <use xlink:href="#HelveticaNeue-29" transform="translate(2794.549332 0)"/>
    </g>
   </g>
   <g id="line2d_21">
    <path d="M 121.558316 206.1456 
L 359.097857 154.471418 
L 438.277704 115.715782 
L 517.457551 107.103418 
L 596.637398 102.797236 
" clip-path="url(#p21b2bfa463)" style="fill: none; stroke: #d94040; stroke-width: 3; stroke-linecap: square"/>
   </g>
   <g id="line2d_22">
    <defs>
     <path id="m22dcfa2b73" d="M 0 5 
C 1.326016 5 2.597899 4.473168 3.535534 3.535534 
C 4.473168 2.597899 5 1.326016 5 0 
C 5 -1.326016 4.473168 -2.597899 3.535534 -3.535534 
C 2.597899 -4.473168 1.326016 -5 0 -5 
C -1.326016 -5 -2.597899 -4.473168 -3.535534 -3.535534 
C -4.473168 -2.597899 -5 -1.326016 -5 0 
C -5 1.326016 -4.473168 2.597899 -3.535534 3.535534 
C -2.597899 4.473168 -1.326016 5 0 5 
z
" style="stroke: #d94040; stroke-width: 2.5"/>
    </defs>
    <g clip-path="url(#p21b2bfa463)">
     <use xlink:href="#m22dcfa2b73" x="359.097857" y="154.471418" style="fill: #ffffff; stroke: #d94040; stroke-width: 2.5"/>
    </g>
   </g>
   <g id="line2d_23">
    <g clip-path="url(#p21b2bfa463)">
     <use xlink:href="#m22dcfa2b73" x="438.277704" y="115.715782" style="fill: #ffffff; stroke: #d94040; stroke-width: 2.5"/>
    </g>
   </g>
   <g id="line2d_24">
    <g clip-path="url(#p21b2bfa463)">
     <use xlink:href="#m22dcfa2b73" x="517.457551" y="107.103418" style="fill: #ffffff; stroke: #d94040; stroke-width: 2.5"/>
    </g>
   </g>
   <g id="line2d_25">
    <g clip-path="url(#p21b2bfa463)">
     <use xlink:href="#m22dcfa2b73" x="596.637398" y="102.797236" style="fill: #ffffff; stroke: #d94040; stroke-width: 2.5"/>
    </g>
   </g>
   <g id="text_18">
    <!-- 12 -->
    <g style="fill: #d94040" transform="translate(350.202857 138.471418) scale(0.16 -0.16)">
     <use xlink:href="#HelveticaNeue-31"/>
     <use xlink:href="#HelveticaNeue-32" transform="translate(55.599991 0)"/>
    </g>
   </g>
   <g id="text_19">
    <!-- 21 -->
    <g style="fill: #d94040" transform="translate(429.382704 99.715782) scale(0.16 -0.16)">
     <use xlink:href="#HelveticaNeue-32"/>
     <use xlink:href="#HelveticaNeue-31" transform="translate(55.599991 0)"/>
    </g>
   </g>
   <g id="text_20">
    <!-- 23 -->
    <g style="fill: #d94040" transform="translate(508.562551 91.103418) scale(0.16 -0.16)">
     <use xlink:href="#HelveticaNeue-32"/>
     <use xlink:href="#HelveticaNeue-33" transform="translate(55.599991 0)"/>
    </g>
   </g>
   <g id="text_21">
    <!-- 24 -->
    <g style="fill: #d94040" transform="translate(587.742398 86.797236) scale(0.16 -0.16)">
     <use xlink:href="#HelveticaNeue-32"/>
     <use xlink:href="#HelveticaNeue-34" transform="translate(55.599991 0)"/>
    </g>
   </g>
  </g>
 </g>
 <defs>
  <clipPath id="p21b2bfa463">
   <rect x="26.5425" y="7.2" width="665.110714" height="198.9456"/>
  </clipPath>
 </defs>
</svg>
